<?xml version="1.0" encoding="UTF-8" standalone="no"?>
<svg
   viewBox="0 0 24 24"
   version="1.1"
   id="svg1"
   sodipodi:docname="no_sound.svg"
   inkscape:version="1.4 (e7c3feb100, 2024-10-09)"
   xmlns:inkscape="http://www.inkscape.org/namespaces/inkscape"
   xmlns:sodipodi="http://sodipodi.sourceforge.net/DTD/sodipodi-0.dtd"
   xmlns="http://www.w3.org/2000/svg"
   xmlns:svg="http://www.w3.org/2000/svg">
  <defs
     id="defs1" />
  <sodipodi:namedview
     id="namedview1"
     pagecolor="#ffffff"
     bordercolor="#000000"
     borderopacity="0.25"
     inkscape:showpageshadow="2"
     inkscape:pageopacity="0.0"
     inkscape:pagecheckerboard="0"
     inkscape:deskcolor="#d1d1d1"
     inkscape:zoom="21.684608"
     inkscape:cx="18.584611"
     inkscape:cy="15.540977"
     inkscape:window-width="1440"
     inkscape:window-height="875"
     inkscape:window-x="0"
     inkscape:window-y="0"
     inkscape:window-maximized="1"
     inkscape:current-layer="svg1" />
  <path
     id="path1"
     d="M 12.060547,2.0019531 A 1,1 0 0 0 11.359375,2.2304688 L 5.6386719,7 H 2 A 1,1 0 0 0 1,8 v 8 a 1,1 0 0 0 1,1 h 3.6386719 l 5.7207031,4.769531 A 1,1 0 0 0 12,22 0.989,0.989 0 0 0 12.423828,21.904297 1,1 0 0 0 13,21 V 3 A 1,1 0 0 0 12.060547,2.0019531 Z M 11,5.1347656 V 18.865234 L 6.640625,15.230469 A 1,1 0 0 0 6,15 H 3 V 9 H 6 A 1,1 0 0 0 6.640625,8.7695312 Z" />
</svg>
